#!OML:ASF E:\acrobat2\Project_11_07_03\Capture day 1\Session 1\Acrobat.ASF
:FULLY-SPECIFIED
:DEGREES
33
root 7.4681 19.2708 10.205 40.0962 -16.0119 -199.475
lowerback 4.75807 1.48824 11.228
upperback -7.4551 3.53902 2.85608
thorax -10.3166 0.993151 -3.64331
lowerneck -9.65041 1.40929 8.80191
upperneck -17.5972 0.949355 -6.50918
head -3.63083 0.0192795 -3.482
rclavicle 3.1408e-014 -7.31528e-014
rhumerus 122.282 -32.1686 -94.1464
rradius 26.143
rwrist 10.5811
rhand -27.4264 -34.3723
rfingers 7.12502
rthumb -0.831954 -64.3504
lclavicle 3.1408e-014 -7.31528e-014
lhumerus 108.463 50.2228 58.2232
lradius 51.6257
lwrist 46.7715
lhand -36.6125 -53.7113
lfingers 7.12502
lthumb -9.70074 -23.9546
rfemur 34.389 11.6401 11.3245
rtibia 56.897
rfoot -171.472 -172.182
rtoes 61.5849
lfemur -37.9772 22.6058 -22.9804
ltibia 14.4699
lfoot -2.59601 -47.0749
ltoes 52.4747
34
root 7.40634 19.3359 9.2751 45.8551 -13.2695 -202.119
lowerback 4.98202 1.41775 12.2389
upperback -7.24169 3.61622 3.25656
thorax -10.2013 0.995683 -3.78067
lowerneck -14.4236 1.41332 6.81946
upperneck -2.70618 0.981148 -5.49462
head 1.73117 0.306313 -2.97221
rclavicle 1.15295e-013 -7.95139e-014
rhumerus 120.394 -41.6942 -92.5587
rradius 24.148
rwrist 11.9841
rhand -25.7012 -25.1386
rfingers 7.12502
rthumb 0.834367 -55.1167
lclavicle 1.15295e-013 -7.95139e-014
lhumerus 91.3497 56.4126 41.577
lradius 49.4854
lwrist 39.0709
lhand -25.2498 -58.1177
lfingers 7.12502
lthumb 1.27027 -28.1417
rfemur 35.0483 11.8548 12.1658
rtibia 55.9754
rfoot -175.036 -172.501
rtoes 60.7564
lfemur -36.7039 17.0484 -17.7479
ltibia 14.781
lfoot -12.9783 -40.8062
ltoes 42.0452
35
root 7.34714 19.3703 8.35039 51.1284 -11.1342 -204.357
lowerback 5.41559 1.79656 12.679
upperback -6.87911 4.19876 3.37898
thorax -9.94899 1.27387 -3.97303
lowerneck -6.23428 -0.576069 6.55925
upperneck -15.9684 -1.11827 -4.85999
head -3.82145 -0.737814 -2.56931
rclavicle -4.29375e-014 -2.8625e-014
rhumerus 124.627 -45.4993 -99.2993
rradius 18.7775
rwrist 26.4499
rhand -28.5246 -21.6941
rfingers 7.12502
rthumb -1.89256 -51.6654
lclavicle -4.29375e-014 -2.8625e-014
lhumerus 86.8427 61.3406 43.0581
lradius 37.871
lwrist -110.651
lhand -46.9533 -102.839
lfingers 7.12502
lthumb -19.6624 -131.864
rfemur 35.9685 12.639 12.043
rtibia 54.5472
rfoot -180.454 -173.583
rtoes 59.1505
lfemur -36.3361 13.4746 -14.6294
ltibia 16.4534
lfoot -9.11367 -31.6926
ltoes 31.0405
36
root 7.28236 19.3002 7.36566 56.0124 -7.67026 -206.01
lowerback 6.3032 1.97447 13.6214
upperback -6.54895 4.67445 3.65108
thorax -10.0128 1.45186 -4.28793
lowerneck -23.6022 -0.77705 0.560818
upperneck 18.4294 -1.31995 0.266648
head 9.72098 -0.52425 -0.192832
rclavicle 2.70347e-014 -2.06736e-014
rhumerus 108.724 -59.1772 -86.2791
rradius 21.1963
rwrist 24.3909
rhand -28.0179 -39.8056
rfingers 7.12502
rthumb -1.40316 -69.7808
lclavicle 2.70347e-014 -2.06736e-014
lhumerus 46.5616 55.9153 4.5618
lradius 40.198
lwrist -81.2696
lhand -69.7725 -191.262
lfingers 7.12502
lthumb -41.3953 -216.052
rfemur 35.304 6.58738 8.67805
rtibia 54.7101
rfoot -180.872 -183.739
rtoes -48.5574
lfemur -37.6091 10.9886 -11.9429
ltibia 20.2016
lfoot -5.24791 -25.6315
ltoes 15.1009
37
root 7.2243 19.1561 6.3924 60.9888 -3.9415 -207.192
lowerback 6.82518 2.1887 14.7557
upperback -6.20241 5.1535 3.83125
thorax -9.80662 1.6351 -4.78586
lowerneck -26.1622 -2.3706 -2.96396
upperneck 23.3011 -3.76087 5.76598
head 12.206 -1.06393 2.02654
rclavicle -2.06736e-014 -3.33958e-014
rhumerus 78.0824 -69.8843 -58.9574
rradius 24.2976
rwrist 15.9056
rhand -11.3388 -64.7146
rfingers 7.12502
rthumb 14.6941 94.1738
lclavicle -2.06736e-014 -3.33958e-014
lhumerus 21.0218 38.3347 -22.0492
lradius 42.0795
lwrist -60.5301
lhand -39.646 -258.567
lfingers 7.12502
lthumb -12.6265 -71.8348
rfemur 35.8212 6.7443 10.1972
rtibia 55.5494
rfoot -178.325 -185.268
rtoes -40.3366
lfemur -39.6253 9.42148 -9.73938
ltibia 24.4538
lfoot -2.5735 -20.7591
ltoes -11.9706
38
root 7.18445 18.9144 5.42877 65.2926 -1.11542 -206.522
lowerback 8.21512 2.2373 13.9186
upperback -6.02245 5.34501 3.74588
thorax -10.4352 1.74168 -4.54039
lowerneck -23.9804 -3.53719 -3.76697
upperneck 20.7634 -5.24541 6.87806
head 10.9716 -1.70888 2.28973
rclavicle 9.38264e-014 4.13472e-014
rhumerus 29.8354 -67.8407 -14.1986
rradius 25.6279
rwrist -5.90947
rhand -5.60152 -63.4478
rfingers 7.12502
rthumb 20.2154 92.4159
lclavicle 9.38264e-014 4.13472e-014
lhumerus 13.5973 17.9215 -27.2015
lradius 45.1234
lwrist -30.8951
lhand -22.6872 -437.183
lfingers 7.12502
lthumb 3.74521 -47.2363
rfemur 37.111 6.04709 10.0362
rtibia 55.6727
rfoot -175.813 -186.466
rtoes -35.5984
lfemur -41.2442 8.1172 -9.99842
ltibia 28.3877
lfoot -1.67707 -17.2511
ltoes -25.5348
39
root 7.12565 18.6133 4.4634 70.1145 0.919555 -205.822
lowerback 9.54857 2.54043 12.9549
upperback -5.7917 5.74202 3.21004
thorax -10.8987 1.93963 -4.74846
lowerneck -26.6188 -5.78427 -8.94835
upperneck 25.6469 -8.36492 12.9419
head 14.2544 -2.42869 5.15892
rclavicle 6.20208e-014 4.77083e-015
rhumerus 10.4228 -64.2345 -0.38214
rradius 27.1108
rwrist -16.4985
rhand -0.411833 -60.162
rfingers 7.12502
rthumb 25.1958 271.481
lclavicle 6.20208e-014 4.77083e-015
lhumerus 16.1542 17.8353 -21.2525
lradius 42.0434
lwrist -18.9093
lhand -1.07457 -430.7
lfingers 7.12502
lthumb 24.5607 -42.2553
rfemur 37.4343 5.44432 8.75629
rtibia 56.2775
rfoot -173.602 -187.14
rtoes -30.6605
lfemur -42.8482 6.77166 -10.9395
ltibia 31.5357
lfoot -1.3208 -13.7741
ltoes -28.5575
40
root 7.10299 18.2221 3.59329 75.9403 4.00767 -204.681
lowerback 10.2545 2.55798 13.538
upperback -5.97431 5.92506 2.48411
thorax -11.3836 1.90492 -5.9487
lowerneck -18.414 -5.55228 -10.4908
upperneck 15.9698 -7.82879 16.9708
head 9.22024 -2.3807 6.63384
rclavicle 7.95139e-015 1.82882e-014
rhumerus 1.13958 -63.0228 3.52609
rradius 26.2541
rwrist -16.5701
rhand 2.02462 -58.0816
rfingers 7.12502
rthumb 27.5281 273.911
lclavicle 7.95139e-015 1.82882e-014
lhumerus 19.5617 21.3599 -13.4936
lradius 41.9039
lwrist -3.75455
lhand 6.99985 -416.984
lfingers 7.12502
lthumb 32.2755 -29.8335
rfemur 36.6054 3.65718 8.78945
rtibia 56.6548
rfoot -170.786 -188.176
rtoes -25.1255
lfemur -45.1359 6.22356 -11.103
ltibia 33.9014
lfoot 0.180595 -13.6984
ltoes -31.4811
41
root 7.07653 17.7801 2.7688 81.897 8.22113 -203.314
lowerback 11.4315 2.16459 16.0333
upperback -6.07753 5.97361 1.83642
thorax -11.9833 1.63764 -8.13758
lowerneck -7.29282 -3.28272 -5.71075
upperneck 3.02638 -4.20749 15.8799
head 2.59273 -1.46382 5.59685
rclavicle -1.11319e-014 -2.66371e-014
rhumerus -6.58435 -59.2944 5.53529
rradius 25.8875
rwrist -15.0394
rhand 2.33636 -56.7618
rfingers 7.12502
rthumb 27.8262 275.279
lclavicle -1.11319e-014 -2.66371e-014
lhumerus 19.2604 18.422 -13.8504
lradius 44.2565
lwrist 20.4893
lhand 18.6285 -400.366
lfingers 7.12502
lthumb 43.2553 -16.2112
rfemur 35.8893 1.61258 10.4552
rtibia 56.7912
rfoot -168.761 -189.856
rtoes -17.869
lfemur -46.8521 6.21853 -10.0599
ltibia 35.1626
lfoot 2.90189 -13.2947
ltoes -34.9048
